<svg xmlns="http://www.w3.org/2000/svg" width="1920" height="1080" viewBox="0 0 1920 1080">
  <defs>
    <linearGradient id="bg" x1="0" x2="1" y1="0" y2="1">
      <stop offset="0%" stop-color="#06111f"/>
      <stop offset="45%" stop-color="#071a2a"/>
      <stop offset="100%" stop-color="#03070d"/>
    </linearGradient>
    <linearGradient id="panel" x1="0" x2="1">
      <stop offset="0%" stop-color="#0b2437"/>
      <stop offset="100%" stop-color="#081321"/>
    </linearGradient>
    <linearGradient id="teal" x1="0" x2="1">
      <stop offset="0%" stop-color="#16f0ff"/>
      <stop offset="100%" stop-color="#0ca8ff"/>
    </linearGradient>
    <linearGradient id="gold" x1="0" x2="1">
      <stop offset="0%" stop-color="#ffe082"/>
      <stop offset="100%" stop-color="#ffb000"/>
    </linearGradient>
    <filter id="glow"><feGaussianBlur stdDeviation="3.5" result="coloredBlur"/><feMerge><feMergeNode in="coloredBlur"/><feMergeNode in="SourceGraphic"/></feMerge></filter>
    <filter id="soft"><feDropShadow dx="0" dy="0" stdDeviation="6" flood-color="#15d9ff" flood-opacity="0.32"/></filter>
    <marker id="arrow" markerWidth="12" markerHeight="12" refX="10" refY="6" orient="auto">
      <path d="M2,2 L10,6 L2,10 z" fill="#7cf8ff"/>
    </marker>
    <marker id="arrowGold" markerWidth="12" markerHeight="12" refX="10" refY="6" orient="auto">
      <path d="M2,2 L10,6 L2,10 z" fill="#ffd15c"/>
    </marker>
    <style>
      .title { font-family: Arial Black, Impact, sans-serif; font-size: 60px; fill: #f7fbff; letter-spacing: .5px; }
      .subtitle { font-family: Arial, sans-serif; font-size: 27px; fill: #ffd15c; font-weight: 700; }
      .label { font-family: Arial, sans-serif; font-size: 26px; fill: #f4fbff; font-weight: 800; }
      .small { font-family: Arial, sans-serif; font-size: 20px; fill: #c7e8f2; }
      .tiny { font-family: Arial, sans-serif; font-size: 16px; fill: #9bd8e9; }
      .gold { fill: #ffd15c; }
      .teal { fill: #7cf8ff; }
      .muted { fill: #83a6b7; }
      .panel { fill: url(#panel); stroke: #16dfff; stroke-width: 3; filter: url(#soft); }
      .panelGold { fill: #101720; stroke: #ffd15c; stroke-width: 3; filter: url(#soft); }
      .box { fill: #0d1d2c; stroke: #70f7ff; stroke-width: 2.5; rx: 18; }
      .boxGold { fill: #151714; stroke: #ffd15c; stroke-width: 2.5; rx: 18; }
      .flow { stroke: #7cf8ff; stroke-width: 5; fill: none; marker-end: url(#arrow); filter:url(#glow); }
      .flowGold { stroke: #ffd15c; stroke-width: 5; fill: none; marker-end: url(#arrowGold); filter:url(#glow); }
      .code { font-family: Menlo, Consolas, monospace; font-size: 18px; fill: #19e7ff; }
    </style>
  </defs>
  <rect width="1920" height="1080" fill="url(#bg)"/>
  <g opacity=".18">
    <path d="M-200,0 L300,1080" stroke="#1ee8ff" stroke-width="2"/><path d="M-40,0 L460,1080" stroke="#1ee8ff" stroke-width="2"/><path d="M120,0 L620,1080" stroke="#1ee8ff" stroke-width="2"/><path d="M280,0 L780,1080" stroke="#1ee8ff" stroke-width="2"/><path d="M440,0 L940,1080" stroke="#1ee8ff" stroke-width="2"/><path d="M600,0 L1100,1080" stroke="#1ee8ff" stroke-width="2"/><path d="M760,0 L1260,1080" stroke="#1ee8ff" stroke-width="2"/><path d="M920,0 L1420,1080" stroke="#1ee8ff" stroke-width="2"/><path d="M1080,0 L1580,1080" stroke="#1ee8ff" stroke-width="2"/><path d="M1240,0 L1740,1080" stroke="#1ee8ff" stroke-width="2"/><path d="M1400,0 L1900,1080" stroke="#1ee8ff" stroke-width="2"/><path d="M1560,0 L2060,1080" stroke="#1ee8ff" stroke-width="2"/><path d="M1720,0 L2220,1080" stroke="#1ee8ff" stroke-width="2"/><path d="M1880,0 L2380,1080" stroke="#1ee8ff" stroke-width="2"/><path d="M2040,0 L2540,1080" stroke="#1ee8ff" stroke-width="2"/><path d="M2200,0 L2700,1080" stroke="#1ee8ff" stroke-width="2"/>
    <circle cx="0" cy="0" r="2" fill="#7cf8ff"/><circle cx="241" cy="137" r="3" fill="#7cf8ff"/><circle cx="482" cy="274" r="4" fill="#7cf8ff"/><circle cx="723" cy="411" r="2" fill="#7cf8ff"/><circle cx="964" cy="548" r="3" fill="#7cf8ff"/><circle cx="1205" cy="685" r="4" fill="#7cf8ff"/><circle cx="1446" cy="822" r="2" fill="#7cf8ff"/><circle cx="1687" cy="959" r="3" fill="#7cf8ff"/><circle cx="8" cy="16" r="4" fill="#7cf8ff"/><circle cx="249" cy="153" r="2" fill="#7cf8ff"/><circle cx="490" cy="290" r="3" fill="#7cf8ff"/><circle cx="731" cy="427" r="4" fill="#7cf8ff"/><circle cx="972" cy="564" r="2" fill="#7cf8ff"/><circle cx="1213" cy="701" r="3" fill="#7cf8ff"/><circle cx="1454" cy="838" r="4" fill="#7cf8ff"/><circle cx="1695" cy="975" r="2" fill="#7cf8ff"/><circle cx="16" cy="32" r="3" fill="#7cf8ff"/><circle cx="257" cy="169" r="4" fill="#7cf8ff"/><circle cx="498" cy="306" r="2" fill="#7cf8ff"/><circle cx="739" cy="443" r="3" fill="#7cf8ff"/><circle cx="980" cy="580" r="4" fill="#7cf8ff"/><circle cx="1221" cy="717" r="2" fill="#7cf8ff"/><circle cx="1462" cy="854" r="3" fill="#7cf8ff"/><circle cx="1703" cy="991" r="4" fill="#7cf8ff"/><circle cx="24" cy="48" r="2" fill="#7cf8ff"/><circle cx="265" cy="185" r="3" fill="#7cf8ff"/><circle cx="506" cy="322" r="4" fill="#7cf8ff"/><circle cx="747" cy="459" r="2" fill="#7cf8ff"/><circle cx="988" cy="596" r="3" fill="#7cf8ff"/><circle cx="1229" cy="733" r="4" fill="#7cf8ff"/><circle cx="1470" cy="870" r="2" fill="#7cf8ff"/><circle cx="1711" cy="1007" r="3" fill="#7cf8ff"/><circle cx="32" cy="64" r="4" fill="#7cf8ff"/><circle cx="273" cy="201" r="2" fill="#7cf8ff"/><circle cx="514" cy="338" r="3" fill="#7cf8ff"/><circle cx="755" cy="475" r="4" fill="#7cf8ff"/><circle cx="996" cy="612" r="2" fill="#7cf8ff"/><circle cx="1237" cy="749" r="3" fill="#7cf8ff"/><circle cx="1478" cy="886" r="4" fill="#7cf8ff"/><circle cx="1719" cy="1023" r="2" fill="#7cf8ff"/><circle cx="40" cy="80" r="3" fill="#7cf8ff"/><circle cx="281" cy="217" r="4" fill="#7cf8ff"/><circle cx="522" cy="354" r="2" fill="#7cf8ff"/><circle cx="763" cy="491" r="3" fill="#7cf8ff"/><circle cx="1004" cy="628" r="4" fill="#7cf8ff"/><circle cx="1245" cy="765" r="2" fill="#7cf8ff"/><circle cx="1486" cy="902" r="3" fill="#7cf8ff"/><circle cx="1727" cy="1039" r="4" fill="#7cf8ff"/><circle cx="48" cy="96" r="2" fill="#7cf8ff"/><circle cx="289" cy="233" r="3" fill="#7cf8ff"/><circle cx="530" cy="370" r="4" fill="#7cf8ff"/><circle cx="771" cy="507" r="2" fill="#7cf8ff"/><circle cx="1012" cy="644" r="3" fill="#7cf8ff"/><circle cx="1253" cy="781" r="4" fill="#7cf8ff"/><circle cx="1494" cy="918" r="2" fill="#7cf8ff"/><circle cx="1735" cy="1055" r="3" fill="#7cf8ff"/><circle cx="56" cy="112" r="4" fill="#7cf8ff"/><circle cx="297" cy="249" r="2" fill="#7cf8ff"/><circle cx="538" cy="386" r="3" fill="#7cf8ff"/><circle cx="779" cy="523" r="4" fill="#7cf8ff"/><circle cx="1020" cy="660" r="2" fill="#7cf8ff"/><circle cx="1261" cy="797" r="3" fill="#7cf8ff"/><circle cx="1502" cy="934" r="4" fill="#7cf8ff"/><circle cx="1743" cy="1071" r="2" fill="#7cf8ff"/><circle cx="64" cy="128" r="3" fill="#7cf8ff"/><circle cx="305" cy="265" r="4" fill="#7cf8ff"/><circle cx="546" cy="402" r="2" fill="#7cf8ff"/><circle cx="787" cy="539" r="3" fill="#7cf8ff"/><circle cx="1028" cy="676" r="4" fill="#7cf8ff"/><circle cx="1269" cy="813" r="2" fill="#7cf8ff"/>
  </g>
  <rect x="45" y="38" width="1830" height="116" rx="28" fill="#071220" stroke="#19e7ff" stroke-width="3" filter="url(#soft)"/>
  <text x="960.0" y="95" text-anchor="middle" class="title">Podcast Factory Pipeline</text>
  <text x="960.0" y="133" text-anchor="middle" class="subtitle">Four to six minutes when voice generation runs in parallel</text>
<rect x="80" y="490" width="190" height="130" rx="20" class="box"/>
<text x="104" y="535" class="label">Router</text>
<text x="104" y="572" text-anchor="start" class="small">classify + init</text>
<text x="104" y="599" text-anchor="start" class="small">board</text><rect x="310" y="360" width="190" height="130" rx="20" class="box"/>
<text x="334" y="405" class="label">Research</text>
<text x="334" y="442" text-anchor="start" class="small">parallel facts</text><rect x="540" y="620" width="190" height="130" rx="20" class="box"/>
<text x="564" y="665" class="label">Thumbnail</text>
<text x="564" y="702" text-anchor="start" class="small">cover art</text><rect x="770" y="490" width="190" height="130" rx="20" class="box"/>
<text x="794" y="535" class="label">Script Factory</text>
<text x="794" y="572" text-anchor="start" class="small">segments + markers</text><rect x="1000" y="490" width="190" height="130" rx="20" class="box"/>
<text x="1024" y="535" class="label">Voice x N</text>
<text x="1024" y="572" text-anchor="start" class="small">ElevenLabs direct</text>
<text x="1024" y="599" text-anchor="start" class="small">calls</text><rect x="1230" y="490" width="190" height="130" rx="20" class="box"/>
<text x="1254" y="535" class="label">Integration</text>
<text x="1254" y="572" text-anchor="start" class="small">stitch, normalize,</text>
<text x="1254" y="599" text-anchor="start" class="small">tag</text><rect x="1460" y="490" width="190" height="130" rx="20" class="box"/>
<text x="1484" y="535" class="label">Ship</text>
<text x="1484" y="572" text-anchor="start" class="small">CDN + RSS</text><rect x="1690" y="490" width="190" height="130" rx="20" class="box"/>
<text x="1714" y="535" class="label">QA</text>
<text x="1714" y="572" text-anchor="start" class="small">post-hoc audit</text><path d="M270,555 C 290.0,555 290.0,425 310,425" class="flow"/><path d="M500,425 C 520.0,425 520.0,685 540,685" class="flow"/><path d="M730,685 C 750.0,685 750.0,555 770,555" class="flow"/><path d="M960,555 C 980.0,555 980.0,555 1000,555" class="flow"/><path d="M1190,555 C 1210.0,555 1210.0,555 1230,555" class="flow"/><path d="M1420,555 C 1440.0,555 1440.0,555 1460,555" class="flow"/><path d="M1650,555 C 1670.0,555 1670.0,555 1690,555" class="flow"/><rect x="600" y="250" width="720" height="65" rx="32" fill="#082235" stroke="#18eaff" stroke-width="3" filter="url(#soft)"/><text x="960.0" y="291.5" text-anchor="middle" class="label"> Parallel fan-out: Research + Thumbnail </text><rect x="770" y="750" width="680" height="65" rx="32" fill="#082235" stroke="#18eaff" stroke-width="3" filter="url(#soft)"/><text x="1110.0" y="791.5" text-anchor="middle" class="label"> Parallel fan-out: Voice Synthesizer per segment </text><text x="120" y="900" text-anchor="start" class="subtitle">Auto-ship rule: known pattern, cached voice_id, no flagged keywords, budget</text>
<text x="120" y="934" text-anchor="start" class="subtitle">under threshold → no human gate.</text></svg>