<?xml version="1.0" encoding="UTF-8" standalone="no"?>
<!DOCTYPE svg PUBLIC "-//W3C//DTD SVG 1.1//EN"
 "http://www.w3.org/Graphics/SVG/1.1/DTD/svg11.dtd">
<!-- Generated by graphviz version 2.42.4 (0)
 -->
<!-- Title: 01_system_map Pages: 1 -->
<svg width="1120pt" height="718pt"
 viewBox="0.00 0.00 1119.50 717.50" xmlns="http://www.w3.org/2000/svg" xmlns:xlink="http://www.w3.org/1999/xlink">
<g id="graph0" class="graph" transform="scale(1 1) rotate(0) translate(18 699.5)">
<title>01_system_map</title>
<polygon fill="#0b1020" stroke="transparent" points="-18,18 -18,-699.5 1101.5,-699.5 1101.5,18 -18,18"/>
<text text-anchor="middle" x="541.75" y="-658.3" font-family="Inter,Arial" font-size="24.00" fill="#f8fafc">Dr Non Agentic AI Council — System Map</text>
<g id="clust1" class="cluster">
<title>cluster_bots</title>
<path fill="#0b1020" stroke="#334155" d="M640,-222.5C640,-222.5 1063.5,-222.5 1063.5,-222.5 1069.5,-222.5 1075.5,-228.5 1075.5,-234.5 1075.5,-234.5 1075.5,-423.5 1075.5,-423.5 1075.5,-429.5 1069.5,-435.5 1063.5,-435.5 1063.5,-435.5 640,-435.5 640,-435.5 634,-435.5 628,-429.5 628,-423.5 628,-423.5 628,-234.5 628,-234.5 628,-228.5 634,-222.5 640,-222.5"/>
<text text-anchor="middle" x="851.75" y="-417.1" font-family="Inter,Arial" font-size="18.00" fill="#f8fafc">Council bots</text>
</g>
<!-- U -->
<g id="node1" class="node">
<title>U</title>
<path fill="#172554" stroke="#2563eb" stroke-width="1.6" d="M221,-540.5C221,-540.5 12,-540.5 12,-540.5 6,-540.5 0,-534.5 0,-528.5 0,-528.5 0,-504.5 0,-504.5 0,-498.5 6,-492.5 12,-492.5 12,-492.5 221,-492.5 221,-492.5 227,-492.5 233,-498.5 233,-504.5 233,-504.5 233,-528.5 233,-528.5 233,-534.5 227,-540.5 221,-540.5"/>
<text text-anchor="middle" x="116.5" y="-521.7" font-family="Inter,Arial" font-size="16.00" fill="#f8fafc">Dr Non</text>
<text text-anchor="middle" x="116.5" y="-503.7" font-family="Inter,Arial" font-size="16.00" fill="#f8fafc">Natural&#45;language command</text>
</g>
<!-- TG -->
<g id="node2" class="node">
<title>TG</title>
<path fill="#0f172a" stroke="#06b6d4" stroke-width="1.6" d="M529,-549.5C529,-549.5 330,-549.5 330,-549.5 324,-549.5 318,-543.5 318,-537.5 318,-537.5 318,-495.5 318,-495.5 318,-489.5 324,-483.5 330,-483.5 330,-483.5 529,-483.5 529,-483.5 535,-483.5 541,-489.5 541,-495.5 541,-495.5 541,-537.5 541,-537.5 541,-543.5 535,-549.5 529,-549.5"/>
<text text-anchor="middle" x="429.5" y="-530.7" font-family="Inter,Arial" font-size="16.00" fill="#f8fafc">Telegram Group Chat</text>
<text text-anchor="middle" x="429.5" y="-512.7" font-family="Inter,Arial" font-size="16.00" fill="#f8fafc">Free platform&#45;as&#45;a&#45;service</text>
<text text-anchor="middle" x="429.5" y="-494.7" font-family="Inter,Arial" font-size="16.00" fill="#f8fafc">state + audit trail</text>
</g>
<!-- U&#45;&gt;TG -->
<g id="edge1" class="edge">
<title>U&#45;&gt;TG</title>
<path fill="none" stroke="#64748b" d="M233.05,-516.5C233.05,-516.5 309.79,-516.5 309.79,-516.5"/>
<polygon fill="#64748b" stroke="#64748b" points="309.79,-519.3 317.79,-516.5 309.79,-513.7 309.79,-519.3"/>
<text text-anchor="middle" x="275.5" y="-519.9" font-family="Inter,Arial" font-size="12.00" fill="#cbd5e1">posts</text>
</g>
<!-- Tenet -->
<g id="node3" class="node">
<title>Tenet</title>
<path fill="#111827" stroke="#f59e0b" stroke-width="1.6" d="M768.5,-317.5C768.5,-317.5 657.5,-317.5 657.5,-317.5 651.5,-317.5 645.5,-311.5 645.5,-305.5 645.5,-305.5 645.5,-287.5 645.5,-287.5 645.5,-281.5 651.5,-275.5 657.5,-275.5 657.5,-275.5 768.5,-275.5 768.5,-275.5 774.5,-275.5 780.5,-281.5 780.5,-287.5 780.5,-287.5 780.5,-305.5 780.5,-305.5 780.5,-311.5 774.5,-317.5 768.5,-317.5"/>
<text text-anchor="middle" x="713" y="-300.3" font-family="Inter,Arial" font-size="14.00" fill="#f8fafc">Tenet</text>
<text text-anchor="middle" x="713" y="-285.3" font-family="Inter,Arial" font-size="14.00" fill="#f8fafc">Chair + synthesis</text>
</g>
<!-- TG&#45;&gt;Tenet -->
<g id="edge2" class="edge">
<title>TG&#45;&gt;Tenet</title>
<path fill="none" stroke="#64748b" d="M535.5,-483.19C535.5,-423.9 535.5,-306.25 535.5,-306.25 535.5,-306.25 637.39,-306.25 637.39,-306.25"/>
<polygon fill="#64748b" stroke="#64748b" points="637.39,-309.05 645.39,-306.25 637.39,-303.45 637.39,-309.05"/>
<text text-anchor="middle" x="588.5" y="-411.9" font-family="Inter,Arial" font-size="12.00" fill="#cbd5e1">routes</text>
</g>
<!-- Think -->
<g id="node4" class="node">
<title>Think</title>
<path fill="#111827" stroke="#8b5cf6" stroke-width="1.6" d="M1055.5,-370C1055.5,-370 926.5,-370 926.5,-370 920.5,-370 914.5,-364 914.5,-358 914.5,-358 914.5,-325 914.5,-325 914.5,-319 920.5,-313 926.5,-313 926.5,-313 1055.5,-313 1055.5,-313 1061.5,-313 1067.5,-319 1067.5,-325 1067.5,-325 1067.5,-358 1067.5,-358 1067.5,-364 1061.5,-370 1055.5,-370"/>
<text text-anchor="middle" x="991" y="-352.8" font-family="Inter,Arial" font-size="14.00" fill="#f8fafc">6 reasoners</text>
<text text-anchor="middle" x="991" y="-337.8" font-family="Inter,Arial" font-size="14.00" fill="#f8fafc">Ana · Civic · Hannah</text>
<text text-anchor="middle" x="991" y="-322.8" font-family="Inter,Arial" font-size="14.00" fill="#f8fafc">Bob · Pip · noN</text>
</g>
<!-- TG&#45;&gt;Think -->
<g id="edge3" class="edge">
<title>TG&#45;&gt;Think</title>
<path fill="none" stroke="#64748b" d="M537.5,-483.25C537.5,-431.49 537.5,-337.5 537.5,-337.5 537.5,-337.5 906.33,-337.5 906.33,-337.5"/>
<polygon fill="#64748b" stroke="#64748b" points="906.33,-340.3 914.33,-337.5 906.33,-334.7 906.33,-340.3"/>
<text text-anchor="middle" x="713" y="-637.9" font-family="Inter,Arial" font-size="12.00" fill="#cbd5e1">awakens</text>
</g>
<!-- Radar -->
<g id="node6" class="node">
<title>Radar</title>
<path fill="#111827" stroke="#06b6d4" stroke-width="1.6" d="M778,-399.5C778,-399.5 648,-399.5 648,-399.5 642,-399.5 636,-393.5 636,-387.5 636,-387.5 636,-369.5 636,-369.5 636,-363.5 642,-357.5 648,-357.5 648,-357.5 778,-357.5 778,-357.5 784,-357.5 790,-363.5 790,-369.5 790,-369.5 790,-387.5 790,-387.5 790,-393.5 784,-399.5 778,-399.5"/>
<text text-anchor="middle" x="713" y="-382.3" font-family="Inter,Arial" font-size="14.00" fill="#f8fafc">Radar</text>
<text text-anchor="middle" x="713" y="-367.3" font-family="Inter,Arial" font-size="14.00" fill="#f8fafc">Secretary + memory</text>
</g>
<!-- TG&#45;&gt;Radar -->
<g id="edge9" class="edge">
<title>TG&#45;&gt;Radar</title>
<path fill="none" stroke="#64748b" d="M539.5,-483.45C539.5,-442.62 539.5,-378.5 539.5,-378.5 539.5,-378.5 627.89,-378.5 627.89,-378.5"/>
<polygon fill="#64748b" stroke="#64748b" points="627.89,-381.3 635.89,-378.5 627.89,-375.7 627.89,-381.3"/>
<text text-anchor="middle" x="588.5" y="-489.9" font-family="Inter,Arial" font-size="12.00" fill="#cbd5e1">scribes</text>
</g>
<!-- Tenet&#45;&gt;Think -->
<g id="edge5" class="edge">
<title>Tenet&#45;&gt;Think</title>
<path fill="none" stroke="#64748b" d="M780.5,-294.25C842.4,-294.25 924.5,-294.25 924.5,-294.25 924.5,-294.25 924.5,-304.92 924.5,-304.92"/>
<polygon fill="#64748b" stroke="#64748b" points="921.7,-304.92 924.5,-312.92 927.3,-304.92 921.7,-304.92"/>
<text text-anchor="middle" x="852" y="-389.9" font-family="Inter,Arial" font-size="12.00" fill="#cbd5e1">debate</text>
</g>
<!-- Otto -->
<g id="node5" class="node">
<title>Otto</title>
<path fill="#111827" stroke="#22c55e" stroke-width="1.6" d="M1043.5,-272.5C1043.5,-272.5 938.5,-272.5 938.5,-272.5 932.5,-272.5 926.5,-266.5 926.5,-260.5 926.5,-260.5 926.5,-242.5 926.5,-242.5 926.5,-236.5 932.5,-230.5 938.5,-230.5 938.5,-230.5 1043.5,-230.5 1043.5,-230.5 1049.5,-230.5 1055.5,-236.5 1055.5,-242.5 1055.5,-242.5 1055.5,-260.5 1055.5,-260.5 1055.5,-266.5 1049.5,-272.5 1043.5,-272.5"/>
<text text-anchor="middle" x="991" y="-255.3" font-family="Inter,Arial" font-size="14.00" fill="#f8fafc">Otto</text>
<text text-anchor="middle" x="991" y="-240.3" font-family="Inter,Arial" font-size="14.00" fill="#f8fafc">Executor + skills</text>
</g>
<!-- Tenet&#45;&gt;Otto -->
<g id="edge4" class="edge">
<title>Tenet&#45;&gt;Otto</title>
<path fill="none" stroke="#64748b" d="M780.77,-284.88C863.21,-284.88 991.5,-284.88 991.5,-284.88 991.5,-284.88 991.5,-280.83 991.5,-280.83"/>
<polygon fill="#64748b" stroke="#64748b" points="994.3,-280.83 991.5,-272.83 988.7,-280.83 994.3,-280.83"/>
<text text-anchor="middle" x="852" y="-273.9" font-family="Inter,Arial" font-size="12.00" fill="#cbd5e1">task</text>
</g>
<!-- Think&#45;&gt;Tenet -->
<g id="edge6" class="edge">
<title>Think&#45;&gt;Tenet</title>
<path fill="none" stroke="#64748b" d="M917.5,-312.79C917.5,-307.51 917.5,-303.62 917.5,-303.62 917.5,-303.62 788.53,-303.62 788.53,-303.62"/>
<polygon fill="#64748b" stroke="#64748b" points="788.53,-300.83 780.53,-303.62 788.53,-306.43 788.53,-300.83"/>
<text text-anchor="middle" x="852" y="-331.9" font-family="Inter,Arial" font-size="12.00" fill="#cbd5e1">lensed takes</text>
</g>
<!-- Otto&#45;&gt;TG -->
<g id="edge7" class="edge">
<title>Otto&#45;&gt;TG</title>
<path fill="none" stroke="#64748b" d="M926.29,-235.5C758.53,-235.5 322.5,-235.5 322.5,-235.5 322.5,-235.5 322.5,-475.44 322.5,-475.44"/>
<polygon fill="#64748b" stroke="#64748b" points="319.7,-475.44 322.5,-483.44 325.3,-475.44 319.7,-475.44"/>
<text text-anchor="middle" x="713" y="-544.9" font-family="Inter,Arial" font-size="12.00" fill="#cbd5e1">ships artefact</text>
</g>
<!-- BRAIN -->
<g id="node10" class="node">
<title>BRAIN</title>
<path fill="#451a03" stroke="#f59e0b" stroke-width="1.6" d="M1056,-516C1056,-516 926,-516 926,-516 920,-516 914,-510 914,-504 914,-504 914,-471 914,-471 914,-465 920,-459 926,-459 926,-459 1056,-459 1056,-459 1062,-459 1068,-465 1068,-471 1068,-471 1068,-504 1068,-504 1068,-510 1062,-516 1056,-516"/>
<text text-anchor="middle" x="991" y="-498.8" font-family="Inter,Arial" font-size="14.00" fill="#f8fafc">Obsidian Brain</text>
<text text-anchor="middle" x="991" y="-483.8" font-family="Inter,Arial" font-size="14.00" fill="#f8fafc">long&#45;term memory</text>
<text text-anchor="middle" x="991" y="-468.8" font-family="Inter,Arial" font-size="14.00" fill="#f8fafc">sessions + artefacts</text>
</g>
<!-- Radar&#45;&gt;BRAIN -->
<g id="edge8" class="edge">
<title>Radar&#45;&gt;BRAIN</title>
<path fill="none" stroke="#64748b" d="M687.5,-399.51C687.5,-427.99 687.5,-475.33 687.5,-475.33 687.5,-475.33 905.63,-475.33 905.63,-475.33"/>
<polygon fill="#64748b" stroke="#64748b" points="905.63,-478.13 913.63,-475.33 905.63,-472.53 905.63,-478.13"/>
<text text-anchor="middle" x="852" y="-447.9" font-family="Inter,Arial" font-size="12.00" fill="#cbd5e1">writes log</text>
</g>
<!-- SOUL -->
<g id="node7" class="node">
<title>SOUL</title>
<path fill="#1e1b4b" stroke="#8b5cf6" stroke-width="1.6" d="M516,-295C516,-295 343,-295 343,-295 337,-295 331,-289 331,-283 331,-283 331,-250 331,-250 331,-244 337,-238 343,-238 343,-238 516,-238 516,-238 522,-238 528,-244 528,-250 528,-250 528,-283 528,-283 528,-289 522,-295 516,-295"/>
<text text-anchor="middle" x="429.5" y="-277.8" font-family="Inter,Arial" font-size="14.00" fill="#f8fafc">SOUL markdown files</text>
<text text-anchor="middle" x="429.5" y="-262.8" font-family="Inter,Arial" font-size="14.00" fill="#f8fafc">identity · lens · routing</text>
<text text-anchor="middle" x="429.5" y="-247.8" font-family="Inter,Arial" font-size="14.00" fill="#f8fafc">anti&#45;duplicate · output lock</text>
</g>
<!-- SOUL&#45;&gt;Tenet -->
<g id="edge10" class="edge">
<title>SOUL&#45;&gt;Tenet</title>
<path fill="none" stroke="#64748b" d="M528.26,-285.25C528.26,-285.25 637.32,-285.25 637.32,-285.25"/>
<polygon fill="#64748b" stroke="#64748b" points="637.32,-288.05 645.32,-285.25 637.32,-282.45 637.32,-288.05"/>
</g>
<!-- SOUL&#45;&gt;Think -->
<g id="edge11" class="edge">
<title>SOUL&#45;&gt;Think</title>
<path fill="none" stroke="#64748b" d="M528.07,-255.25C671.16,-255.25 919.5,-255.25 919.5,-255.25 919.5,-255.25 919.5,-304.78 919.5,-304.78"/>
<polygon fill="#64748b" stroke="#64748b" points="916.7,-304.78 919.5,-312.78 922.3,-304.78 916.7,-304.78"/>
</g>
<!-- PROV -->
<g id="node8" class="node">
<title>PROV</title>
<path fill="#052e16" stroke="#22c55e" stroke-width="1.6" d="M521,-176C521,-176 338,-176 338,-176 332,-176 326,-170 326,-164 326,-164 326,-131 326,-131 326,-125 332,-119 338,-119 338,-119 521,-119 521,-119 527,-119 533,-125 533,-131 533,-131 533,-164 533,-164 533,-170 527,-176 521,-176"/>
<text text-anchor="middle" x="429.5" y="-158.8" font-family="Inter,Arial" font-size="14.00" fill="#f8fafc">Model providers</text>
<text text-anchor="middle" x="429.5" y="-143.8" font-family="Inter,Arial" font-size="14.00" fill="#f8fafc">OpenRouter · Gemini · Qwen</text>
<text text-anchor="middle" x="429.5" y="-128.8" font-family="Inter,Arial" font-size="14.00" fill="#f8fafc">Mistral · Groq · NVIDIA</text>
</g>
<!-- PROV&#45;&gt;Tenet -->
<g id="edge12" class="edge">
<title>PROV&#45;&gt;Tenet</title>
<path fill="none" stroke="#64748b" d="M533.24,-153.2C614.36,-153.2 713.5,-153.2 713.5,-153.2 713.5,-153.2 713.5,-267.36 713.5,-267.36"/>
<polygon fill="#64748b" stroke="#64748b" points="710.7,-267.36 713.5,-275.36 716.3,-267.36 710.7,-267.36"/>
</g>
<!-- PROV&#45;&gt;Think -->
<g id="edge13" class="edge">
<title>PROV&#45;&gt;Think</title>
<path fill="none" stroke="#64748b" d="M533.15,-141.8C677.75,-141.8 922.5,-141.8 922.5,-141.8 922.5,-141.8 922.5,-304.89 922.5,-304.89"/>
<polygon fill="#64748b" stroke="#64748b" points="919.7,-304.89 922.5,-312.89 925.3,-304.89 919.7,-304.89"/>
</g>
<!-- PROV&#45;&gt;Otto -->
<g id="edge14" class="edge">
<title>PROV&#45;&gt;Otto</title>
<path fill="none" stroke="#64748b" d="M533.23,-130.4C695.62,-130.4 991.5,-130.4 991.5,-130.4 991.5,-130.4 991.5,-222.41 991.5,-222.41"/>
<polygon fill="#64748b" stroke="#64748b" points="988.7,-222.41 991.5,-230.41 994.3,-222.41 988.7,-222.41"/>
</g>
<!-- PROV&#45;&gt;Radar -->
<g id="edge15" class="edge">
<title>PROV&#45;&gt;Radar</title>
<path fill="none" stroke="#64748b" d="M533.02,-164.6C586.83,-164.6 641.5,-164.6 641.5,-164.6 641.5,-164.6 641.5,-349.21 641.5,-349.21"/>
<polygon fill="#64748b" stroke="#64748b" points="638.7,-349.21 641.5,-357.21 644.3,-349.21 638.7,-349.21"/>
</g>
<!-- TOOLS -->
<g id="node9" class="node">
<title>TOOLS</title>
<path fill="#3b0764" stroke="#8b5cf6" stroke-width="1.6" d="M777.5,-57C777.5,-57 648.5,-57 648.5,-57 642.5,-57 636.5,-51 636.5,-45 636.5,-45 636.5,-12 636.5,-12 636.5,-6 642.5,0 648.5,0 648.5,0 777.5,0 777.5,0 783.5,0 789.5,-6 789.5,-12 789.5,-12 789.5,-45 789.5,-45 789.5,-51 783.5,-57 777.5,-57"/>
<text text-anchor="middle" x="713" y="-39.8" font-family="Inter,Arial" font-size="14.00" fill="#f8fafc">Tools + skills</text>
<text text-anchor="middle" x="713" y="-24.8" font-family="Inter,Arial" font-size="14.00" fill="#f8fafc">OCR · PDF · podcast</text>
<text text-anchor="middle" x="713" y="-9.8" font-family="Inter,Arial" font-size="14.00" fill="#f8fafc">Drive · email · media</text>
</g>
<!-- TOOLS&#45;&gt;Otto -->
<g id="edge16" class="edge">
<title>TOOLS&#45;&gt;Otto</title>
<path fill="none" stroke="#64748b" d="M785.5,-57.37C785.5,-113.74 785.5,-233 785.5,-233 785.5,-233 918.26,-233 918.26,-233"/>
<polygon fill="#64748b" stroke="#64748b" points="918.26,-235.8 926.26,-233 918.26,-230.2 918.26,-235.8"/>
</g>
<!-- BRAIN&#45;&gt;Radar -->
<g id="edge17" class="edge">
<title>BRAIN&#45;&gt;Radar</title>
<path fill="none" stroke="#64748b" d="M913.83,-467.17C839.9,-467.17 739.5,-467.17 739.5,-467.17 739.5,-467.17 739.5,-407.51 739.5,-407.51"/>
<polygon fill="#64748b" stroke="#64748b" points="742.3,-407.51 739.5,-399.51 736.7,-407.51 742.3,-407.51"/>
<text text-anchor="middle" x="852" y="-505.9" font-family="Inter,Arial" font-size="12.00" fill="#cbd5e1">recall</text>
</g>
</g>
</svg>
