<?xml version="1.0" encoding="UTF-8" standalone="no"?>
<!DOCTYPE svg PUBLIC "-//W3C//DTD SVG 1.1//EN"
 "http://www.w3.org/Graphics/SVG/1.1/DTD/svg11.dtd">
<!-- Generated by graphviz version 2.42.4 (0)
 -->
<!-- Title: 02_turn_flow Pages: 1 -->
<svg width="2195pt" height="195pt"
 viewBox="0.00 0.00 2195.00 195.00" xmlns="http://www.w3.org/2000/svg" xmlns:xlink="http://www.w3.org/1999/xlink">
<g id="graph0" class="graph" transform="scale(1 1) rotate(0) translate(18 177)">
<title>02_turn_flow</title>
<polygon fill="#0b1020" stroke="transparent" points="-18,18 -18,-177 2177,-177 2177,18 -18,18"/>
<text text-anchor="middle" x="1079.5" y="-135.8" font-family="Inter,Arial" font-size="24.00" fill="#f8fafc">One Council Turn — From Prompt to Shipped Result</text>
<!-- A -->
<g id="node1" class="node">
<title>A</title>
<path fill="#111827" stroke="#2563eb" stroke-width="1.6" d="M191,-97.5C191,-97.5 12,-97.5 12,-97.5 6,-97.5 0,-91.5 0,-85.5 0,-85.5 0,-63.5 0,-63.5 0,-57.5 6,-51.5 12,-51.5 12,-51.5 191,-51.5 191,-51.5 197,-51.5 203,-57.5 203,-63.5 203,-63.5 203,-85.5 203,-85.5 203,-91.5 197,-97.5 191,-97.5"/>
<text text-anchor="middle" x="101.5" y="-79.5" font-family="Inter,Arial" font-size="15.00" fill="#f8fafc">1 Inbound</text>
<text text-anchor="middle" x="101.5" y="-62.5" font-family="Inter,Arial" font-size="15.00" fill="#f8fafc">Dr Non posts in Telegram</text>
</g>
<!-- B -->
<g id="node2" class="node">
<title>B</title>
<path fill="#111827" stroke="#06b6d4" stroke-width="1.6" d="M489,-97.5C489,-97.5 270,-97.5 270,-97.5 264,-97.5 258,-91.5 258,-85.5 258,-85.5 258,-63.5 258,-63.5 258,-57.5 264,-51.5 270,-51.5 270,-51.5 489,-51.5 489,-51.5 495,-51.5 501,-57.5 501,-63.5 501,-63.5 501,-85.5 501,-85.5 501,-91.5 495,-97.5 489,-97.5"/>
<text text-anchor="middle" x="379.5" y="-79.5" font-family="Inter,Arial" font-size="15.00" fill="#f8fafc">2 Awaken</text>
<text text-anchor="middle" x="379.5" y="-62.5" font-family="Inter,Arial" font-size="15.00" fill="#f8fafc">Bot gateways receive message</text>
</g>
<!-- A&#45;&gt;B -->
<g id="edge1" class="edge">
<title>A&#45;&gt;B</title>
<path fill="none" stroke="#64748b" d="M203.04,-74.5C203.04,-74.5 249.92,-74.5 249.92,-74.5"/>
<polygon fill="#64748b" stroke="#64748b" points="249.92,-77.3 257.92,-74.5 249.92,-71.7 249.92,-77.3"/>
</g>
<!-- C -->
<g id="node3" class="node">
<title>C</title>
<path fill="#111827" stroke="#8b5cf6" stroke-width="1.6" d="M745,-106C745,-106 568,-106 568,-106 562,-106 556,-100 556,-94 556,-94 556,-55 556,-55 556,-49 562,-43 568,-43 568,-43 745,-43 745,-43 751,-43 757,-49 757,-55 757,-55 757,-94 757,-94 757,-100 751,-106 745,-106"/>
<text text-anchor="middle" x="656.5" y="-88" font-family="Inter,Arial" font-size="15.00" fill="#f8fafc">3 Contribute</text>
<text text-anchor="middle" x="656.5" y="-71" font-family="Inter,Arial" font-size="15.00" fill="#f8fafc">Only useful lenses speak</text>
<text text-anchor="middle" x="656.5" y="-54" font-family="Inter,Arial" font-size="15.00" fill="#f8fafc">once per turn</text>
</g>
<!-- B&#45;&gt;C -->
<g id="edge2" class="edge">
<title>B&#45;&gt;C</title>
<path fill="none" stroke="#64748b" d="M501.4,-74.5C501.4,-74.5 547.72,-74.5 547.72,-74.5"/>
<polygon fill="#64748b" stroke="#64748b" points="547.72,-77.3 555.72,-74.5 547.72,-71.7 547.72,-77.3"/>
</g>
<!-- D -->
<g id="node4" class="node">
<title>D</title>
<path fill="#111827" stroke="#f59e0b" stroke-width="1.6" d="M980,-97.5C980,-97.5 824,-97.5 824,-97.5 818,-97.5 812,-91.5 812,-85.5 812,-85.5 812,-63.5 812,-63.5 812,-57.5 818,-51.5 824,-51.5 824,-51.5 980,-51.5 980,-51.5 986,-51.5 992,-57.5 992,-63.5 992,-63.5 992,-85.5 992,-85.5 992,-91.5 986,-97.5 980,-97.5"/>
<text text-anchor="middle" x="902" y="-79.5" font-family="Inter,Arial" font-size="15.00" fill="#f8fafc">4 Route</text>
<text text-anchor="middle" x="902" y="-62.5" font-family="Inter,Arial" font-size="15.00" fill="#f8fafc">Tenet: debate or task?</text>
</g>
<!-- C&#45;&gt;D -->
<g id="edge3" class="edge">
<title>C&#45;&gt;D</title>
<path fill="none" stroke="#64748b" d="M757.06,-74.5C757.06,-74.5 803.84,-74.5 803.84,-74.5"/>
<polygon fill="#64748b" stroke="#64748b" points="803.84,-77.3 811.84,-74.5 803.84,-71.7 803.84,-77.3"/>
</g>
<!-- E -->
<g id="node5" class="node">
<title>E</title>
<path fill="#111827" stroke="#8b5cf6" stroke-width="1.6" d="M1359,-125C1359,-125 1182,-125 1182,-125 1176,-125 1170,-119 1170,-113 1170,-113 1170,-74 1170,-74 1170,-68 1176,-62 1182,-62 1182,-62 1359,-62 1359,-62 1365,-62 1371,-68 1371,-74 1371,-74 1371,-113 1371,-113 1371,-119 1365,-125 1359,-125"/>
<text text-anchor="middle" x="1270.5" y="-107" font-family="Inter,Arial" font-size="15.00" fill="#f8fafc">5 Debate</text>
<text text-anchor="middle" x="1270.5" y="-90" font-family="Inter,Arial" font-size="15.00" fill="#f8fafc">Thinkers expand / qualify</text>
<text text-anchor="middle" x="1270.5" y="-73" font-family="Inter,Arial" font-size="15.00" fill="#f8fafc">concede / stand / pass</text>
</g>
<!-- D&#45;&gt;E -->
<g id="edge4" class="edge">
<title>D&#45;&gt;E</title>
<path fill="none" stroke="#64748b" d="M992.15,-73.83C992.15,-73.83 1161.93,-73.83 1161.93,-73.83"/>
<polygon fill="#64748b" stroke="#64748b" points="1161.93,-76.63 1169.93,-73.83 1161.93,-71.03 1161.93,-76.63"/>
</g>
<!-- D&#45;&gt;E -->
<g id="edge9" class="edge">
<title>D&#45;&gt;E</title>
<path fill="none" stroke="#64748b" d="M992.15,-85.67C992.15,-85.67 1161.93,-85.67 1161.93,-85.67"/>
<polygon fill="#64748b" stroke="#64748b" points="1161.93,-88.47 1169.93,-85.67 1161.93,-82.87 1161.93,-88.47"/>
<text text-anchor="middle" x="1081" y="-77.9" font-family="Inter,Arial" font-size="12.00" fill="#cbd5e1">CONTENT / judgment</text>
</g>
<!-- F -->
<g id="node6" class="node">
<title>F</title>
<path fill="#111827" stroke="#22c55e" stroke-width="1.6" d="M1606,-54.5C1606,-54.5 1438,-54.5 1438,-54.5 1432,-54.5 1426,-48.5 1426,-42.5 1426,-42.5 1426,-20.5 1426,-20.5 1426,-14.5 1432,-8.5 1438,-8.5 1438,-8.5 1606,-8.5 1606,-8.5 1612,-8.5 1618,-14.5 1618,-20.5 1618,-20.5 1618,-42.5 1618,-42.5 1618,-48.5 1612,-54.5 1606,-54.5"/>
<text text-anchor="middle" x="1522" y="-36.5" font-family="Inter,Arial" font-size="15.00" fill="#f8fafc">6 Execute</text>
<text text-anchor="middle" x="1522" y="-19.5" font-family="Inter,Arial" font-size="15.00" fill="#f8fafc">Otto runs skill if needed</text>
</g>
<!-- D&#45;&gt;F -->
<g id="edge8" class="edge">
<title>D&#45;&gt;F</title>
<path fill="none" stroke="#64748b" d="M902,-51.36C902,-48.1 902,-45.83 902,-45.83 902,-45.83 1417.81,-45.83 1417.81,-45.83"/>
<polygon fill="#64748b" stroke="#64748b" points="1417.81,-48.63 1425.81,-45.83 1417.81,-43.03 1417.81,-48.63"/>
<text text-anchor="middle" x="1270.5" y="-11.9" font-family="Inter,Arial" font-size="12.00" fill="#cbd5e1">ACTION / rendering</text>
</g>
<!-- E&#45;&gt;F -->
<g id="edge5" class="edge">
<title>E&#45;&gt;F</title>
<path fill="none" stroke="#64748b" d="M1271,-61.88C1271,-54.46 1271,-48.67 1271,-48.67 1271,-48.67 1417.67,-48.67 1417.67,-48.67"/>
<polygon fill="#64748b" stroke="#64748b" points="1417.67,-51.47 1425.67,-48.67 1417.67,-45.87 1417.67,-51.47"/>
</g>
<!-- G -->
<g id="node7" class="node">
<title>G</title>
<path fill="#111827" stroke="#f59e0b" stroke-width="1.6" d="M1922,-63C1922,-63 1751,-63 1751,-63 1745,-63 1739,-57 1739,-51 1739,-51 1739,-12 1739,-12 1739,-6 1745,0 1751,0 1751,0 1922,0 1922,0 1928,0 1934,-6 1934,-12 1934,-12 1934,-51 1934,-51 1934,-57 1928,-63 1922,-63"/>
<text text-anchor="middle" x="1836.5" y="-45" font-family="Inter,Arial" font-size="15.00" fill="#f8fafc">7 Synthesis</text>
<text text-anchor="middle" x="1836.5" y="-28" font-family="Inter,Arial" font-size="15.00" fill="#f8fafc">Tenet pins decision</text>
<text text-anchor="middle" x="1836.5" y="-11" font-family="Inter,Arial" font-size="15.00" fill="#f8fafc">or names open question</text>
</g>
<!-- F&#45;&gt;G -->
<g id="edge6" class="edge">
<title>F&#45;&gt;G</title>
<path fill="none" stroke="#64748b" d="M1618.07,-23.83C1618.07,-23.83 1730.85,-23.83 1730.85,-23.83"/>
<polygon fill="#64748b" stroke="#64748b" points="1730.85,-26.63 1738.85,-23.83 1730.85,-21.03 1730.85,-26.63"/>
</g>
<!-- F&#45;&gt;G -->
<g id="edge10" class="edge">
<title>F&#45;&gt;G</title>
<path fill="none" stroke="#64748b" d="M1618.07,-39.17C1618.07,-39.17 1730.85,-39.17 1730.85,-39.17"/>
<polygon fill="#64748b" stroke="#64748b" points="1730.85,-41.97 1738.85,-39.17 1730.85,-36.37 1730.85,-41.97"/>
<text text-anchor="middle" x="1678.5" y="-15.9" font-family="Inter,Arial" font-size="12.00" fill="#cbd5e1">artefact link</text>
</g>
<!-- H -->
<g id="node8" class="node">
<title>H</title>
<path fill="#111827" stroke="#06b6d4" stroke-width="1.6" d="M2147,-63C2147,-63 2001,-63 2001,-63 1995,-63 1989,-57 1989,-51 1989,-51 1989,-12 1989,-12 1989,-6 1995,0 2001,0 2001,0 2147,0 2147,0 2153,0 2159,-6 2159,-12 2159,-12 2159,-51 2159,-51 2159,-57 2153,-63 2147,-63"/>
<text text-anchor="middle" x="2074" y="-45" font-family="Inter,Arial" font-size="15.00" fill="#f8fafc">8 Scribe</text>
<text text-anchor="middle" x="2074" y="-28" font-family="Inter,Arial" font-size="15.00" fill="#f8fafc">Radar writes session</text>
<text text-anchor="middle" x="2074" y="-11" font-family="Inter,Arial" font-size="15.00" fill="#f8fafc">to Obsidian Brain</text>
</g>
<!-- G&#45;&gt;H -->
<g id="edge7" class="edge">
<title>G&#45;&gt;H</title>
<path fill="none" stroke="#64748b" d="M1934.13,-31.5C1934.13,-31.5 1980.9,-31.5 1980.9,-31.5"/>
<polygon fill="#64748b" stroke="#64748b" points="1980.9,-34.3 1988.9,-31.5 1980.9,-28.7 1980.9,-34.3"/>
</g>
</g>
</svg>
