<?xml version="1.0" encoding="UTF-8" standalone="no"?>
<!DOCTYPE svg PUBLIC "-//W3C//DTD SVG 1.1//EN"
 "http://www.w3.org/Graphics/SVG/1.1/DTD/svg11.dtd">
<!-- Generated by graphviz version 2.42.4 (0)
 -->
<!-- Title: 04_engine_ladder Pages: 1 -->
<svg width="1541pt" height="154pt"
 viewBox="0.00 0.00 1541.00 154.00" xmlns="http://www.w3.org/2000/svg" xmlns:xlink="http://www.w3.org/1999/xlink">
<g id="graph0" class="graph" transform="scale(1 1) rotate(0) translate(18 136)">
<title>04_engine_ladder</title>
<polygon fill="#0b1020" stroke="transparent" points="-18,18 -18,-136 1523,-136 1523,18 -18,18"/>
<text text-anchor="middle" x="752.5" y="-94.8" font-family="Inter,Arial" font-size="24.00" fill="#f8fafc">Engine Ladder — Pick the Smallest Thing That Works</text>
<!-- Pico -->
<g id="node1" class="node">
<title>Pico</title>
<path fill="#0f172a" stroke="#94a3b8" stroke-width="1.6" d="M139,-75C139,-75 12,-75 12,-75 6,-75 0,-69 0,-63 0,-63 0,-21 0,-21 0,-15 6,-9 12,-9 12,-9 139,-9 139,-9 145,-9 151,-15 151,-21 151,-21 151,-63 151,-63 151,-69 145,-75 139,-75"/>
<text text-anchor="middle" x="75.5" y="-56.2" font-family="Inter,Arial" font-size="16.00" fill="#f8fafc">picoclaw</text>
<text text-anchor="middle" x="75.5" y="-38.2" font-family="Inter,Arial" font-size="16.00" fill="#f8fafc">tiny</text>
<text text-anchor="middle" x="75.5" y="-20.2" font-family="Inter,Arial" font-size="16.00" fill="#f8fafc">one job · no tools</text>
</g>
<!-- Nano -->
<g id="node2" class="node">
<title>Nano</title>
<path fill="#172554" stroke="#2563eb" stroke-width="1.6" d="M483,-84C483,-84 306,-84 306,-84 300,-84 294,-78 294,-72 294,-72 294,-12 294,-12 294,-6 300,0 306,0 306,0 483,0 483,0 489,0 495,-6 495,-12 495,-12 495,-72 495,-72 495,-78 489,-84 483,-84"/>
<text text-anchor="middle" x="394.5" y="-65.2" font-family="Inter,Arial" font-size="16.00" fill="#f8fafc">nanobot</text>
<text text-anchor="middle" x="394.5" y="-47.2" font-family="Inter,Arial" font-size="16.00" fill="#f8fafc">small</text>
<text text-anchor="middle" x="394.5" y="-29.2" font-family="Inter,Arial" font-size="16.00" fill="#f8fafc">one bot · light tools</text>
<text text-anchor="middle" x="394.5" y="-11.2" font-family="Inter,Arial" font-size="16.00" fill="#f8fafc">main council workhorse</text>
</g>
<!-- Pico&#45;&gt;Nano -->
<g id="edge1" class="edge">
<title>Pico&#45;&gt;Nano</title>
<path fill="none" stroke="#64748b" d="M151.1,-42C151.1,-42 285.79,-42 285.79,-42"/>
<polygon fill="#64748b" stroke="#64748b" points="285.79,-44.8 293.79,-42 285.79,-39.2 285.79,-44.8"/>
<text text-anchor="middle" x="222.5" y="-45.4" font-family="Inter,Arial" font-size="12.00" fill="#cbd5e1">more capability</text>
</g>
<!-- Open -->
<g id="node3" class="node">
<title>Open</title>
<path fill="#052e16" stroke="#22c55e" stroke-width="1.6" d="M744,-84C744,-84 622,-84 622,-84 616,-84 610,-78 610,-72 610,-72 610,-12 610,-12 610,-6 616,0 622,0 622,0 744,0 744,0 750,0 756,-6 756,-12 756,-12 756,-72 756,-72 756,-78 750,-84 744,-84"/>
<text text-anchor="middle" x="683" y="-65.2" font-family="Inter,Arial" font-size="16.00" fill="#f8fafc">openclaw</text>
<text text-anchor="middle" x="683" y="-47.2" font-family="Inter,Arial" font-size="16.00" fill="#f8fafc">medium</text>
<text text-anchor="middle" x="683" y="-29.2" font-family="Inter,Arial" font-size="16.00" fill="#f8fafc">skill runner</text>
<text text-anchor="middle" x="683" y="-11.2" font-family="Inter,Arial" font-size="16.00" fill="#f8fafc">Otto heavy work</text>
</g>
<!-- Nano&#45;&gt;Open -->
<g id="edge2" class="edge">
<title>Nano&#45;&gt;Open</title>
<path fill="none" stroke="#64748b" d="M495.4,-42C495.4,-42 601.87,-42 601.87,-42"/>
<polygon fill="#64748b" stroke="#64748b" points="601.87,-44.8 609.87,-42 601.87,-39.2 601.87,-44.8"/>
<text text-anchor="middle" x="552.5" y="-45.4" font-family="Inter,Arial" font-size="12.00" fill="#cbd5e1">more tools</text>
</g>
<!-- Hermes -->
<g id="node4" class="node">
<title>Hermes</title>
<path fill="#451a03" stroke="#f59e0b" stroke-width="1.6" d="M1114,-84C1114,-84 902,-84 902,-84 896,-84 890,-78 890,-72 890,-72 890,-12 890,-12 890,-6 896,0 902,0 902,0 1114,0 1114,0 1120,0 1126,-6 1126,-12 1126,-12 1126,-72 1126,-72 1126,-78 1120,-84 1114,-84"/>
<text text-anchor="middle" x="1008" y="-65.2" font-family="Inter,Arial" font-size="16.00" fill="#f8fafc">hermes</text>
<text text-anchor="middle" x="1008" y="-47.2" font-family="Inter,Arial" font-size="16.00" fill="#f8fafc">large</text>
<text text-anchor="middle" x="1008" y="-29.2" font-family="Inter,Arial" font-size="16.00" fill="#f8fafc">full assistant</text>
<text text-anchor="middle" x="1008" y="-11.2" font-family="Inter,Arial" font-size="16.00" fill="#f8fafc">Radar + memory + daemons</text>
</g>
<!-- Open&#45;&gt;Hermes -->
<g id="edge3" class="edge">
<title>Open&#45;&gt;Hermes</title>
<path fill="none" stroke="#64748b" d="M756.34,-42C756.34,-42 881.98,-42 881.98,-42"/>
<polygon fill="#64748b" stroke="#64748b" points="881.98,-44.8 889.98,-42 881.97,-39.2 881.98,-44.8"/>
<text text-anchor="middle" x="823" y="-45.4" font-family="Inter,Arial" font-size="12.00" fill="#cbd5e1">more memory</text>
</g>
<!-- Rule -->
<g id="node5" class="node">
<title>Rule</title>
<path fill="#3b0764" stroke="#8b5cf6" stroke-width="1.6" d="M1493,-73.5C1493,-73.5 1193,-73.5 1193,-73.5 1187,-73.5 1181,-67.5 1181,-61.5 1181,-61.5 1181,-22.5 1181,-22.5 1181,-16.5 1187,-10.5 1193,-10.5 1193,-10.5 1493,-10.5 1493,-10.5 1499,-10.5 1505,-16.5 1505,-22.5 1505,-22.5 1505,-61.5 1505,-61.5 1505,-67.5 1499,-73.5 1493,-73.5"/>
<text text-anchor="middle" x="1343" y="-55.5" font-family="Inter,Arial" font-size="15.00" fill="#f8fafc">Rule of thumb</text>
<text text-anchor="middle" x="1343" y="-38.5" font-family="Inter,Arial" font-size="15.00" fill="#f8fafc">Do not run Hermes when Picoclaw will do.</text>
<text text-anchor="middle" x="1343" y="-21.5" font-family="Inter,Arial" font-size="15.00" fill="#f8fafc">Complexity is a cost.</text>
</g>
<!-- Hermes&#45;&gt;Rule -->
<g id="edge4" class="edge">
<title>Hermes&#45;&gt;Rule</title>
<path fill="none" stroke="#64748b" d="M1126.11,-42C1126.11,-42 1172.76,-42 1172.76,-42"/>
<polygon fill="#64748b" stroke="#64748b" points="1172.76,-44.8 1180.76,-42 1172.76,-39.2 1172.76,-44.8"/>
</g>
</g>
</svg>
