<?xml version="1.0" encoding="UTF-8" standalone="no"?>
<!DOCTYPE svg PUBLIC "-//W3C//DTD SVG 1.1//EN"
 "http://www.w3.org/Graphics/SVG/1.1/DTD/svg11.dtd">
<!-- Generated by graphviz version 2.42.4 (0)
 -->
<!-- Title: 06_memory_flow Pages: 1 -->
<svg width="1076pt" height="485pt"
 viewBox="0.00 0.00 1076.00 485.00" xmlns="http://www.w3.org/2000/svg" xmlns:xlink="http://www.w3.org/1999/xlink">
<g id="graph0" class="graph" transform="scale(1 1) rotate(0) translate(18 467)">
<title>06_memory_flow</title>
<polygon fill="#0b1020" stroke="transparent" points="-18,18 -18,-467 1058,-467 1058,18 -18,18"/>
<text text-anchor="middle" x="520" y="-427.4" font-family="Inter,Arial" font-size="22.00" fill="#f8fafc">Memory and Artefact Flow — Telegram Is Working Memory, Obsidian Is Long&#45;Term Memory</text>
<!-- TG -->
<g id="node1" class="node">
<title>TG</title>
<path fill="#111827" stroke="#06b6d4" stroke-width="1.6" d="M174,-227.5C174,-227.5 12,-227.5 12,-227.5 6,-227.5 0,-221.5 0,-215.5 0,-215.5 0,-176.5 0,-176.5 0,-170.5 6,-164.5 12,-164.5 12,-164.5 174,-164.5 174,-164.5 180,-164.5 186,-170.5 186,-176.5 186,-176.5 186,-215.5 186,-215.5 186,-221.5 180,-227.5 174,-227.5"/>
<text text-anchor="middle" x="93" y="-209.5" font-family="Inter,Arial" font-size="15.00" fill="#f8fafc">Telegram chat</text>
<text text-anchor="middle" x="93" y="-192.5" font-family="Inter,Arial" font-size="15.00" fill="#f8fafc">working memory</text>
<text text-anchor="middle" x="93" y="-175.5" font-family="Inter,Arial" font-size="15.00" fill="#f8fafc">fast · visible · auditable</text>
</g>
<!-- PIN -->
<g id="node2" class="node">
<title>PIN</title>
<path fill="#111827" stroke="#f59e0b" stroke-width="1.6" d="M377,-305C377,-305 266,-305 266,-305 260,-305 254,-299 254,-293 254,-293 254,-271 254,-271 254,-265 260,-259 266,-259 266,-259 377,-259 377,-259 383,-259 389,-265 389,-271 389,-271 389,-293 389,-293 389,-299 383,-305 377,-305"/>
<text text-anchor="middle" x="321.5" y="-287" font-family="Inter,Arial" font-size="15.00" fill="#f8fafc">Pinned decision</text>
<text text-anchor="middle" x="321.5" y="-270" font-family="Inter,Arial" font-size="15.00" fill="#f8fafc">Tenet synthesis</text>
</g>
<!-- TG&#45;&gt;PIN -->
<g id="edge1" class="edge">
<title>TG&#45;&gt;PIN</title>
<path fill="none" stroke="#64748b" d="M186.14,-223.25C249.54,-223.25 322,-223.25 322,-223.25 322,-223.25 322,-250.78 322,-250.78"/>
<polygon fill="#64748b" stroke="#64748b" points="319.2,-250.78 322,-258.78 324.8,-250.78 319.2,-250.78"/>
</g>
<!-- RAD -->
<g id="node3" class="node">
<title>RAD</title>
<path fill="#111827" stroke="#06b6d4" stroke-width="1.6" d="M390,-219C390,-219 253,-219 253,-219 247,-219 241,-213 241,-207 241,-207 241,-185 241,-185 241,-179 247,-173 253,-173 253,-173 390,-173 390,-173 396,-173 402,-179 402,-185 402,-185 402,-207 402,-207 402,-213 396,-219 390,-219"/>
<text text-anchor="middle" x="321.5" y="-201" font-family="Inter,Arial" font-size="15.00" fill="#f8fafc">Radar daemon</text>
<text text-anchor="middle" x="321.5" y="-184" font-family="Inter,Arial" font-size="15.00" fill="#f8fafc">watch + summarize</text>
</g>
<!-- TG&#45;&gt;RAD -->
<g id="edge2" class="edge">
<title>TG&#45;&gt;RAD</title>
<path fill="none" stroke="#64748b" d="M186.27,-196C186.27,-196 232.97,-196 232.97,-196"/>
<polygon fill="#64748b" stroke="#64748b" points="232.97,-198.8 240.97,-196 232.97,-193.2 232.97,-198.8"/>
</g>
<!-- CO -->
<g id="node4" class="node">
<title>CO</title>
<path fill="#111827" stroke="#8b5cf6" stroke-width="1.6" d="M768.5,-417C768.5,-417 586.5,-417 586.5,-417 580.5,-417 574.5,-411 574.5,-405 574.5,-405 574.5,-383 574.5,-383 574.5,-377 580.5,-371 586.5,-371 586.5,-371 768.5,-371 768.5,-371 774.5,-371 780.5,-377 780.5,-383 780.5,-383 780.5,-405 780.5,-405 780.5,-411 774.5,-417 768.5,-417"/>
<text text-anchor="middle" x="677.5" y="-399" font-family="Inter,Arial" font-size="15.00" fill="#f8fafc">~/Brain/Council/sessions/</text>
<text text-anchor="middle" x="677.5" y="-382" font-family="Inter,Arial" font-size="15.00" fill="#f8fafc">transcripts + decisions</text>
</g>
<!-- RAD&#45;&gt;CO -->
<g id="edge3" class="edge">
<title>RAD&#45;&gt;CO</title>
<path fill="none" stroke="#64748b" d="M394,-219.1C394,-271.33 394,-394 394,-394 394,-394 566.35,-394 566.35,-394"/>
<polygon fill="#64748b" stroke="#64748b" points="566.35,-396.8 574.35,-394 566.35,-391.2 566.35,-396.8"/>
</g>
<!-- OO -->
<g id="node5" class="node">
<title>OO</title>
<path fill="#111827" stroke="#22c55e" stroke-width="1.6" d="M790,-330.5C790,-330.5 565,-330.5 565,-330.5 559,-330.5 553,-324.5 553,-318.5 553,-318.5 553,-279.5 553,-279.5 553,-273.5 559,-267.5 565,-267.5 565,-267.5 790,-267.5 790,-267.5 796,-267.5 802,-273.5 802,-279.5 802,-279.5 802,-318.5 802,-318.5 802,-324.5 796,-330.5 790,-330.5"/>
<text text-anchor="middle" x="677.5" y="-312.5" font-family="Inter,Arial" font-size="15.00" fill="#f8fafc">OccipitalLobe</text>
<text text-anchor="middle" x="677.5" y="-295.5" font-family="Inter,Arial" font-size="15.00" fill="#f8fafc">visual artefacts</text>
<text text-anchor="middle" x="677.5" y="-278.5" font-family="Inter,Arial" font-size="15.00" fill="#f8fafc">diagrams · screenshots · videos</text>
</g>
<!-- RAD&#45;&gt;OO -->
<g id="edge4" class="edge">
<title>RAD&#45;&gt;OO</title>
<path fill="none" stroke="#64748b" d="M398,-219.24C398,-245.98 398,-286.25 398,-286.25 398,-286.25 544.87,-286.25 544.87,-286.25"/>
<polygon fill="#64748b" stroke="#64748b" points="544.87,-289.05 552.87,-286.25 544.87,-283.45 544.87,-289.05"/>
</g>
<!-- TT -->
<g id="node6" class="node">
<title>TT</title>
<path fill="#111827" stroke="#22c55e" stroke-width="1.6" d="M775,-227.5C775,-227.5 580,-227.5 580,-227.5 574,-227.5 568,-221.5 568,-215.5 568,-215.5 568,-176.5 568,-176.5 568,-170.5 574,-164.5 580,-164.5 580,-164.5 775,-164.5 775,-164.5 781,-164.5 787,-170.5 787,-176.5 787,-176.5 787,-215.5 787,-215.5 787,-221.5 781,-227.5 775,-227.5"/>
<text text-anchor="middle" x="677.5" y="-209.5" font-family="Inter,Arial" font-size="15.00" fill="#f8fafc">TemporalLobe</text>
<text text-anchor="middle" x="677.5" y="-192.5" font-family="Inter,Arial" font-size="15.00" fill="#f8fafc">semantic artefacts</text>
<text text-anchor="middle" x="677.5" y="-175.5" font-family="Inter,Arial" font-size="15.00" fill="#f8fafc">podcasts · writings · corpus</text>
</g>
<!-- RAD&#45;&gt;TT -->
<g id="edge5" class="edge">
<title>RAD&#45;&gt;TT</title>
<path fill="none" stroke="#64748b" d="M402.28,-196C402.28,-196 559.69,-196 559.69,-196"/>
<polygon fill="#64748b" stroke="#64748b" points="559.69,-198.8 567.69,-196 559.69,-193.2 559.69,-198.8"/>
</g>
<!-- HH -->
<g id="node7" class="node">
<title>HH</title>
<path fill="#111827" stroke="#22c55e" stroke-width="1.6" d="M742,-124.5C742,-124.5 613,-124.5 613,-124.5 607,-124.5 601,-118.5 601,-112.5 601,-112.5 601,-73.5 601,-73.5 601,-67.5 607,-61.5 613,-61.5 613,-61.5 742,-61.5 742,-61.5 748,-61.5 754,-67.5 754,-73.5 754,-73.5 754,-112.5 754,-112.5 754,-118.5 748,-124.5 742,-124.5"/>
<text text-anchor="middle" x="677.5" y="-106.5" font-family="Inter,Arial" font-size="15.00" fill="#f8fafc">Hippocampus</text>
<text text-anchor="middle" x="677.5" y="-89.5" font-family="Inter,Arial" font-size="15.00" fill="#f8fafc">episodes + people</text>
<text text-anchor="middle" x="677.5" y="-72.5" font-family="Inter,Arial" font-size="15.00" fill="#f8fafc">who / what / when</text>
</g>
<!-- RAD&#45;&gt;HH -->
<g id="edge6" class="edge">
<title>RAD&#45;&gt;HH</title>
<path fill="none" stroke="#64748b" d="M322,-172.88C322,-142.52 322,-93 322,-93 322,-93 592.8,-93 592.8,-93"/>
<polygon fill="#64748b" stroke="#64748b" points="592.8,-95.8 600.8,-93 592.8,-90.2 592.8,-95.8"/>
</g>
<!-- RE -->
<g id="node8" class="node">
<title>RE</title>
<path fill="#111827" stroke="#2563eb" stroke-width="1.6" d="M1028,-219C1028,-219 869,-219 869,-219 863,-219 857,-213 857,-207 857,-207 857,-185 857,-185 857,-179 863,-173 869,-173 869,-173 1028,-173 1028,-173 1034,-173 1040,-179 1040,-185 1040,-185 1040,-207 1040,-207 1040,-213 1034,-219 1028,-219"/>
<text text-anchor="middle" x="948.5" y="-201" font-family="Inter,Arial" font-size="15.00" fill="#f8fafc">Future query</text>
<text text-anchor="middle" x="948.5" y="-184" font-family="Inter,Arial" font-size="15.00" fill="#f8fafc">“What did we decide?”</text>
</g>
<!-- CO&#45;&gt;RE -->
<g id="edge7" class="edge">
<title>CO&#45;&gt;RE</title>
<path fill="none" stroke="#64748b" d="M780.84,-394C868.12,-394 979,-394 979,-394 979,-394 979,-227.1 979,-227.1"/>
<polygon fill="#64748b" stroke="#64748b" points="981.8,-227.1 979,-219.1 976.2,-227.1 981.8,-227.1"/>
</g>
<!-- OO&#45;&gt;RE -->
<g id="edge8" class="edge">
<title>OO&#45;&gt;RE</title>
<path fill="none" stroke="#64748b" d="M795,-267.26C795,-239.52 795,-203.67 795,-203.67 795,-203.67 848.99,-203.67 848.99,-203.67"/>
<polygon fill="#64748b" stroke="#64748b" points="848.99,-206.47 856.99,-203.67 848.99,-200.87 848.99,-206.47"/>
</g>
<!-- TT&#45;&gt;RE -->
<g id="edge9" class="edge">
<title>TT&#45;&gt;RE</title>
<path fill="none" stroke="#64748b" d="M787.34,-188.33C787.34,-188.33 848.73,-188.33 848.73,-188.33"/>
<polygon fill="#64748b" stroke="#64748b" points="848.73,-191.13 856.73,-188.33 848.73,-185.53 848.73,-191.13"/>
</g>
<!-- HH&#45;&gt;RE -->
<g id="edge10" class="edge">
<title>HH&#45;&gt;RE</title>
<path fill="none" stroke="#64748b" d="M754.21,-93C834.5,-93 949,-93 949,-93 949,-93 949,-164.88 949,-164.88"/>
<polygon fill="#64748b" stroke="#64748b" points="946.2,-164.88 949,-172.88 951.8,-164.88 946.2,-164.88"/>
</g>
<!-- RE&#45;&gt;TG -->
<g id="edge11" class="edge">
<title>RE&#45;&gt;TG</title>
<path fill="none" stroke="#64748b" d="M918,-219.07C918,-231.07 918,-243.25 918,-243.25 918,-243.25 93,-243.25 93,-243.25 93,-243.25 93,-235.52 93,-235.52"/>
<polygon fill="#64748b" stroke="#64748b" points="95.8,-235.52 93,-227.52 90.2,-235.52 95.8,-235.52"/>
<text text-anchor="middle" x="477.5" y="-3.4" font-family="Inter,Arial" font-size="12.00" fill="#cbd5e1">retrieved context</text>
</g>
</g>
</svg>
